<?xml version="1.0" standalone="no"?>
<!DOCTYPE svg PUBLIC "-//W3C//DTD SVG 20010904//EN"
 "http://www.w3.org/TR/2001/REC-SVG-20010904/DTD/svg10.dtd">
<svg version="1.0" xmlns="http://www.w3.org/2000/svg"
 width="168.000000pt" height="168.000000pt" viewBox="0 0 168.000000 168.000000"
 preserveAspectRatio="xMidYMid meet">
<metadata>
Created by potrace 1.13, written by Peter Selinger 2001-2015
</metadata>
<g transform="translate(0.000000,168.000000) scale(0.100000,-0.100000)"
fill="#000000" stroke="none">
<!-- tjs 160425 bulb under left top curve -->
<polygon points="1143,723 1225,825 1250,925 1220,1150 1150,1225 1050,1325 1000,1330 
975,1350 950,1350 925,1350 850,1350 700,1325 650,1325 600,1300 575,1250 530,1225 
475,1125 460,1025 460,925 500,825 550,725 575,700 650,600 700,485 1075,485 1075,525 1143,723" 
style="fill: yellow; stroke: black" />
<polygon points="1001,350 750,350 760,125 850,165 995,165 1001,350" 
style="fill: silver; stroke: black" />
<polygon points="995,165 850,145 800,125 850,90 870,75 930,95 940,105 955,115 995,165" 
style="fill: orange; stroke: black" />
<!-- tjs 160425 bulb ceramic left line -->
<line x1="700" y1="350" x2="700" y2="495" style="stroke: black; stroke-width: 10" />
<!-- tjs 160425 bulb ceramic bottom line -->
<line x1="700" y1="350" x2="1065" y2="350" style="stroke: black; stroke-width: 10" />
<!-- tjs 160425 bulb socket left line -->
<line x1="760" y1="350" x2="760" y2="225" style="stroke: black; stroke-width: 10" />
<!-- tjs 160425 bulb socket right line -->
<line x1="1000" y1="350" x2="1000" y2="225" style="stroke: black; stroke-width: 10" />
<!-- tjs 160425 bulb socket left side twist -->
<line x1="760" y1="280" x2="850" y2="325" style="stroke: black; stroke-width: 10" />
<line x1="760" y1="270" x2="850" y2="325" style="stroke: black; stroke-width: 10" />
<!-- tjs 160425 bulb socket right side twist -->
<line x1="1000" y1="335" x2="900" y2="295" style="stroke: black; stroke-width: 10" />
<line x1="1000" y1="325" x2="900" y2="295" style="stroke: black; stroke-width: 10" />
<path d="M745 1367 c-192 -64 -305 -223 -293 -412 6 -87 42 -161 126 -257 31
-36 63 -74 70 -84 7 -10 6 -5 -3 13 -8 17 -37 57 -65 88 -90 104 -124 208
-101 317 26 125 100 222 214 278 171 83 386 25 493 -134 42 -63 45 -50 3 16
-44 68 -120 133 -187 159 -70 27 -199 35 -257 16z"/>
<path d="M948 1143 c-61 -69 -92 -200 -84 -345 5 -68 3 -108 -3 -108 -5 0 -15
-2 -23 -5 -8 -3 -20 11 -32 41 -19 48 -61 104 -77 104 -5 0 -9 -24 -9 -54 0
-63 24 -101 70 -111 27 -6 29 -10 33 -63 l3 -57 2 58 c1 31 6 57 11 57 5 0 16
3 25 6 11 4 18 -4 25 -28 l11 -33 -5 34 c-4 28 1 40 34 77 68 77 88 211 56
365 -9 40 -17 74 -19 76 -1 2 -10 -5 -18 -14z m16 -80 c11 -70 6 -209 -9 -252
-21 -61 -55 -107 -66 -89 -12 19 -11 168 2 230 13 60 48 148 59 148 4 0 10
-17 14 -37z"/>
<!-- tjs 160425 lightbulb lower right shadow curve -->
<path d="M1143 723 c-53 -70 -103 -164 -103 -195 0 -16 -12 -18 -102 -19 -57
0 -110 -2 -118 -3 -8 -2 -38 -6 -67 -10 l-51 -6 -17 50 c-9 28 -19 50 -21 48
-2 -2 4 -26 12 -54 l16 -49 196 4 c185 3 195 2 188 -15 -4 -10 -10 -39 -13
-64 -3 -25 -11 -48 -17 -52 -7 -5 -4 -8 7 -8 13 0 17 8 17 33 1 17 7 50 15 72
18 49 18 45 0 45 -36 0 3 119 73 223 62 92 55 91 -15 0z"/>
<path d="M1001 279 c-1 -10 -22 -22 -61 -34 -71 -21 -73 -30 -5 -15 57 13 70
4 60 -38 -6 -30 -7 -31 -53 -25 -26 3 -74 0 -106 -6 -33 -6 -60 -10 -61 -8 -1
1 -5 14 -8 28 -6 24 -1 29 56 59 57 30 45 35 -20 8 -15 -6 -32 -12 -38 -12 -5
-1 -10 -25 -10 -54 0 -46 2 -52 18 -48 12 3 22 -5 32 -24 33 -64 107 -81 144
-34 30 38 26 48 -9 23 -16 -12 -43 -22 -60 -22 -31 0 -70 27 -70 49 0 18 61
28 135 21 l63 -6 4 47 c2 26 1 61 -3 77 -4 17 -7 23 -8 14z"/>
</g>
</svg>
